<svg width="23" height="23" viewBox="0 0 23 23" fill="none" xmlns="http://www.w3.org/2000/svg">
<g id="_x36__1_">
<g id="Group">
<path id="Vector" d="M4.45663 12.4985L5.65063 13.7785" stroke="#BF9766" stroke-miterlimit="10" stroke-linecap="square"/>
<path id="Vector_2" d="M5.65063 12.4985L4.45663 13.7785" stroke="#BF9766" stroke-miterlimit="10" stroke-linecap="square"/>
</g>
<g id="Group_2">
<path id="Vector_3" d="M8.73135 12.4985L9.92535 13.7785" stroke="#BF9766" stroke-miterlimit="10" stroke-linecap="square"/>
<path id="Vector_4" d="M9.92535 12.4985L8.73135 13.7785" stroke="#BF9766" stroke-miterlimit="10" stroke-linecap="square"/>
</g>
<g id="Group_3">
<path id="Vector_5" d="M13.006 12.4985L14.2 13.7785" stroke="#BF9766" stroke-miterlimit="10" stroke-linecap="square"/>
<path id="Vector_6" d="M14.2 12.4985L13.006 13.7785" stroke="#BF9766" stroke-miterlimit="10" stroke-linecap="square"/>
</g>
<path id="Vector_7" d="M20.4392 2.99707H22V22H1.14453V2.99707H3.76818" stroke="#BF9766" stroke-miterlimit="10" stroke-linecap="square"/>
<path id="Vector_8" d="M7.16722 1H4.48676V4.9691H7.16722V1Z" stroke="#BF9766" stroke-miterlimit="10" stroke-linecap="square"/>
<path id="Vector_9" d="M18.6579 1H15.9775V4.9691H18.6579V1Z" stroke="#BF9766" stroke-miterlimit="10" stroke-linecap="square"/>
<path id="Vector_10" d="M1.14453 7.52197H19.9679" stroke="#BF9766" stroke-miterlimit="10" stroke-linecap="square"/>
<path id="Vector_11" d="M4.27292 10.2576H5.83374" stroke="#BF9766" stroke-miterlimit="10" stroke-linecap="square"/>
<path id="Vector_12" d="M8.54733 10.2576H10.1082" stroke="#BF9766" stroke-miterlimit="10" stroke-linecap="square"/>
<path id="Vector_13" d="M12.8223 10.2576H14.3831" stroke="#BF9766" stroke-miterlimit="10" stroke-linecap="square"/>
<path id="Vector_14" d="M17.1004 10.2576H18.6579" stroke="#BF9766" stroke-miterlimit="10" stroke-linecap="square"/>
<path id="Vector_15" d="M17.1004 13.2729H18.6579" stroke="#BF9766" stroke-miterlimit="10" stroke-linecap="square"/>
<path id="Vector_16" d="M4.27292 16.292H5.83374" stroke="#BF9766" stroke-miterlimit="10" stroke-linecap="square"/>
<path id="Vector_17" d="M8.54733 16.292H10.1082" stroke="#BF9766" stroke-miterlimit="10" stroke-linecap="square"/>
<path id="Vector_18" d="M12.8223 16.292H14.3831" stroke="#BF9766" stroke-miterlimit="10" stroke-linecap="square"/>
<path id="Vector_19" d="M17.1004 16.292H18.6579" stroke="#BF9766" stroke-miterlimit="10" stroke-linecap="square"/>
<path id="Vector_20" d="M4.27292 19.311H5.83374" stroke="#BF9766" stroke-miterlimit="10" stroke-linecap="square"/>
<path id="Vector_21" d="M8.54733 19.311H10.1082" stroke="#BF9766" stroke-miterlimit="10" stroke-linecap="square"/>
<path id="Vector_22" d="M12.8223 19.311H14.3831" stroke="#BF9766" stroke-miterlimit="10" stroke-linecap="square"/>
<path id="Vector_23" d="M17.1004 19.311H18.6579" stroke="#BF9766" stroke-miterlimit="10" stroke-linecap="square"/>
<path id="Vector_24" d="M8.94864 2.99707H15.9773" stroke="#BF9766" stroke-miterlimit="10" stroke-linecap="square"/>
</g>
</svg>
