<svg width="21" height="17" viewBox="0 0 21 17" fill="none" xmlns="http://www.w3.org/2000/svg">
<g id="Group">
<path id="Vector" d="M20.8334 1.95482C20.0856 2.28586 19.2815 2.50961 18.4368 2.61167C19.2985 2.09483 19.9599 1.27705 20.2716 0.304871C19.4648 0.781146 18.573 1.1292 17.6222 1.31631C16.8613 0.505069 15.7769 0 14.5773 0C12.2736 0 10.4048 1.86585 10.4048 4.16741C10.4048 4.49453 10.4414 4.81248 10.5135 5.11735C7.04687 4.94463 3.97315 3.28552 1.9144 0.764138C1.55556 1.38042 1.34995 2.09483 1.34995 2.85896C1.34995 4.3048 2.08596 5.57923 3.2057 6.32897C2.52207 6.30673 1.87904 6.11961 1.3159 5.8069C1.31459 5.82391 1.31459 5.84223 1.31459 5.86055C1.31459 7.87948 2.75258 9.56345 4.66203 9.94814C4.31235 10.0423 3.94434 10.0934 3.56324 10.0934C3.29346 10.0934 3.03284 10.0672 2.77877 10.0175C3.30917 11.674 4.8506 12.8778 6.67623 12.9118C5.24742 14.0305 3.4493 14.6965 1.49532 14.6965C1.15743 14.6965 0.826099 14.6782 0.5 14.6389C2.34659 15.8218 4.53891 16.5113 6.89495 16.5113C14.5694 16.5113 18.7642 10.1614 18.7642 4.65154C18.7642 4.47098 18.7603 4.29172 18.7524 4.11246C19.567 3.52497 20.2742 2.79092 20.8334 1.95482Z" fill="white"/>
</g>
</svg>
