<svg width="18" height="17" viewBox="0 0 18 17" fill="none" xmlns="http://www.w3.org/2000/svg">
<g id="Group">
<g id="Group_2">
<path id="Vector" d="M15.2133 16.9858H2.78668C1.5251 16.9858 0.5 15.9604 0.5 14.7011V2.28461C0.5 1.02536 1.52629 0 2.78668 0H15.2133C16.4737 0 17.5 1.02536 17.5 2.28461V14.7011C17.5 15.9616 16.4737 16.9858 15.2133 16.9858ZM2.78668 1.32186C2.25462 1.32186 1.82306 1.75421 1.82306 2.28461V14.7011C1.82306 15.2327 2.25462 15.6639 2.78668 15.6639H15.2133C15.7454 15.6639 16.1769 15.2315 16.1769 14.7011V2.28461C16.1769 1.75421 15.7442 1.32186 15.2133 1.32186H2.78668Z" fill="white"/>
</g>
<g id="Group_3">
<path id="Vector_2" fill-rule="evenodd" clip-rule="evenodd" d="M13.9589 8.71296C13.9589 11.411 11.7703 13.5976 9.06979 13.5976C6.36927 13.5976 4.18073 11.411 4.18073 8.71296C4.18073 6.01489 6.36927 3.82715 9.06979 3.82715C11.7703 3.82833 13.9589 6.01489 13.9589 8.71296Z" fill="white"/>
</g>
<path id="Vector_3" fill-rule="evenodd" clip-rule="evenodd" d="M15.058 3.3506C15.058 3.87864 14.63 4.30745 14.1003 4.30745C13.5706 4.30745 13.1426 3.87864 13.1426 3.3506C13.1426 2.82138 13.5706 2.39258 14.1003 2.39258C14.6288 2.39258 15.058 2.82138 15.058 3.3506Z" fill="white"/>
</g>
</svg>
