<svg width="24" height="21" viewBox="0 0 24 21" fill="none" xmlns="http://www.w3.org/2000/svg">
<g id="008-double bed">
<path id="Vector" d="M23.6484 15.9725C23.812 15.7092 23.9999 15.2374 23.9999 14.8709V13.409C23.9999 12.8139 23.7103 12.2851 23.2645 11.9562C23.7003 11.634 24 11.0389 24 10.5013C24 9.90917 23.7135 9.38272 23.272 9.05314V3.21692C23.272 2.22181 22.4624 1.41223 21.4673 1.41223H12.7659C12.5717 1.41223 12.4144 1.56964 12.4144 1.76379C12.4144 1.95795 12.5717 2.11536 12.7659 2.11536H21.4673C22.0748 2.11536 22.5689 2.60951 22.5689 3.21692V8.73439C22.3383 8.6855 22.0558 8.68643 21.8159 8.6952V3.92281C21.8159 3.34123 21.3427 2.86812 20.7612 2.86812H3.23883C2.65725 2.86812 2.18414 3.34123 2.18414 3.92281V8.6952C1.94414 8.68653 1.66191 8.68545 1.43109 8.73397V3.21692C1.43109 2.60951 1.92525 2.11536 2.53266 2.11536H11.2341C11.4282 2.11536 11.5856 1.95795 11.5856 1.76379C11.5856 1.56964 11.4282 1.41223 11.2341 1.41223H2.53266C1.53755 1.41223 0.727969 2.22181 0.727969 3.21692V9.05201C0.296437 9.37442 0 9.96715 0 10.5013C0 11.0971 0.290016 11.6264 0.736219 11.9556C0.290063 12.2845 9.375e-05 12.8135 9.375e-05 13.4091V14.871C9.375e-05 15.2854 0.140531 15.6676 0.376266 15.9726H0.351562C0.157406 15.9726 0 16.13 0 16.3242V17.7801C0 17.9742 0.157406 18.1317 0.351562 18.1317H1.45613V19.2362C1.45613 19.4303 1.61353 19.5877 1.80769 19.5877H3.26372C3.45788 19.5877 3.61528 19.4303 3.61528 19.2362V18.1317H6.50156C6.69572 18.1317 6.85312 17.9742 6.85312 17.7801C6.85312 17.5859 6.69572 17.4285 6.50156 17.4285H0.703125V16.6757H23.2969V17.4285H8.03391C7.83975 17.4285 7.68234 17.5859 7.68234 17.7801C7.68234 17.9742 7.83975 18.1317 8.03391 18.1317H20.3847V19.2362C20.3847 19.4303 20.542 19.5877 20.7362 19.5877H22.1923C22.3865 19.5877 22.5438 19.4303 22.5438 19.2362V18.1317H23.6484C23.8426 18.1317 24 17.9742 24 17.7801V16.3242C24 16.13 23.8426 15.9725 23.6484 15.9725ZM2.88727 3.92281C2.88727 3.72898 3.04495 3.57125 3.23883 3.57125H20.7611C20.955 3.57125 21.1127 3.72898 21.1127 3.92281V8.6952H20.2984C20.3381 8.58439 20.3597 8.46509 20.3597 8.34083V6.83473C20.3597 6.25315 19.8865 5.78004 19.305 5.78004H14.1591C13.5775 5.78004 13.1044 6.25315 13.1044 6.83473V8.34083C13.1044 8.46509 13.126 8.58439 13.1656 8.6952H10.8342C10.8739 8.58439 10.8955 8.46504 10.8955 8.34073V6.83487C10.8955 6.25329 10.4224 5.78018 9.84084 5.78018H4.69491C4.11333 5.78018 3.64022 6.25329 3.64022 6.83487V8.34073C3.64022 8.46504 3.66183 8.58439 3.70153 8.6952H2.88731L2.88727 3.92281ZM4.34334 8.34073V6.83487C4.34334 6.641 4.50103 6.48331 4.69491 6.48331H9.84084C10.0347 6.48331 10.1924 6.641 10.1924 6.83487V8.34073C10.1924 8.53461 10.0347 8.69229 9.84084 8.69229H4.69491C4.50103 8.69229 4.34334 8.53461 4.34334 8.34073ZM1.80609 9.39832H15.9661C16.1603 9.39832 16.3177 9.24092 16.3177 9.04676C16.3177 9.04629 16.3177 9.04583 16.3177 9.04536C16.3177 9.04489 16.3177 9.04442 16.3177 9.04395C16.3177 8.84979 16.1603 8.69239 15.9661 8.69239H14.1591C13.9652 8.69239 13.8075 8.5347 13.8075 8.34083V6.83473C13.8075 6.64086 13.9652 6.48317 14.1591 6.48317H19.305C19.4989 6.48317 19.6566 6.64086 19.6566 6.83473V8.34083C19.6566 8.5347 19.4989 8.69239 19.305 8.69239H17.4984C17.3042 8.69239 17.1469 8.84979 17.1469 9.04395V9.04536V9.04676C17.1469 9.24092 17.3042 9.39832 17.4984 9.39832H22.1939C22.8021 9.39832 23.2969 9.89314 23.2969 10.5013C23.2337 11.1734 22.866 11.5411 22.1939 11.6043H1.80609C1.19789 11.6043 0.703125 11.1095 0.703125 10.5013C0.703125 10.2068 0.958125 9.39832 1.80609 9.39832ZM0.703219 13.409C0.703219 12.8016 1.19737 12.3075 1.80478 12.3075H22.1952C22.8026 12.3075 23.2968 12.8016 23.2968 13.409V14.8709C23.2968 15.4783 22.8026 15.9725 22.1952 15.9725H1.80478C1.19737 15.9725 0.703219 15.4783 0.703219 14.8709V13.409ZM2.91216 18.8846H2.15925V18.1317H2.91216V18.8846ZM21.8407 18.8846H21.0878V18.1317H21.8407V18.8846Z" fill="#575656"/>
</g>
</svg>
