<svg width="15" height="17" viewBox="0 0 15 17" fill="none" xmlns="http://www.w3.org/2000/svg">
<g id="Group">
<path id="Vector" fill-rule="evenodd" clip-rule="evenodd" d="M7.71879 0C2.92025 0.00123371 0.5 3.32607 0.5 6.10068C0.5 6.61267 0.561729 7.10862 0.687681 7.56509C0.971691 8.60387 1.58788 9.44402 2.5671 9.8314C2.80048 9.92146 3.00793 9.83511 3.07337 9.58713C3.1203 9.41565 3.23019 8.98385 3.28082 8.8025C3.34626 8.55822 3.32157 8.4731 3.13511 8.25967C2.89062 7.98085 2.70168 7.65145 2.58684 7.24926C2.51028 6.98155 2.46707 6.68422 2.46707 6.34372C2.46707 3.87507 4.37858 1.6655 7.44095 1.6655C10.1539 1.6655 11.6443 3.26809 11.6443 5.40733C11.6443 6.03899 11.5801 6.64721 11.4591 7.21102C11.0368 9.16767 9.92789 10.6 8.44487 10.6C7.38662 10.6 6.59509 9.75739 6.84823 8.71984C6.99394 8.12889 7.20263 7.51944 7.38168 6.9433C7.57926 6.31041 7.74101 5.72193 7.74101 5.25435C7.74101 4.45615 7.29648 3.78871 6.379 3.78871C5.29853 3.78871 4.42921 4.86821 4.42921 6.31534C4.42921 6.58799 4.45762 6.83227 4.49713 7.04446C4.59221 7.55028 4.7515 7.86118 4.7515 7.86118C4.7515 7.86118 3.64509 12.3876 3.45122 13.1822C3.06596 14.7625 3.39319 16.6982 3.42035 16.8931C3.4364 17.0079 3.592 17.0362 3.65992 16.9487C3.75994 16.8216 5.04786 15.2869 5.48499 13.7534C5.60847 13.3179 6.19502 11.0688 6.19502 11.0688C6.54694 11.7153 7.57185 12.284 8.66343 12.284C11.3084 12.284 13.2595 10.3866 13.8929 7.61073C14.0374 6.97784 14.114 6.30054 14.114 5.59116C14.1152 2.69812 11.5764 0 7.71879 0Z" fill="white"/>
</g>
</svg>
